<svg viewBox="0 0 1200 300" xmlns="http://www.w3.org/2000/svg">
  <defs>
    <linearGradient id="bgGradient" x1="0%" y1="0%" x2="100%" y2="100%">
      <stop offset="0%" style="stop-color:#1e293b;stop-opacity:1" />
      <stop offset="50%" style="stop-color:#1e40af;stop-opacity:1" />
      <stop offset="100%" style="stop-color:#1e293b;stop-opacity:1" />
    </linearGradient>
    <linearGradient id="textGradient" x1="0%" y1="0%" x2="100%" y2="0%">
      <stop offset="0%" style="stop-color:#3b82f6;stop-opacity:1" />
      <stop offset="50%" style="stop-color:#8b5cf6;stop-opacity:1" />
      <stop offset="100%" style="stop-color:#ec4899;stop-opacity:1" />
    </linearGradient>
  </defs>
  <rect width="1200" height="300" fill="url(#bgGradient)"/>
  <g opacity="0.1" stroke="white" stroke-width="1" fill="none">
    <circle cx="100" cy="50" r="30"/>
    <circle cx="250" cy="100" r="20"/>
    <circle cx="400" cy="70" r="25"/>
    <circle cx="550" cy="120" r="15"/>
    <circle cx="700" cy="60" r="35"/>
    <circle cx="850" cy="90" r="20"/>
    <circle cx="1000" cy="50" r="30"/>
    <line x1="100" y1="50" x2="250" y2="100"/>
    <line x1="250" y1="100" x2="400" y2="70"/>
    <line x1="400" y1="70" x2="550" y2="120"/>
    <line x1="550" y1="120" x2="700" y2="60"/>
    <line x1="700" y1="60" x2="850" y2="90"/>
    <line x1="850" y1="90" x2="1000" y2="50"/>
  </g>
  <text x="600" y="120" font-family="Arial, sans-serif" font-size="56" font-weight="bold" text-anchor="middle" fill="url(#textGradient)">Reinforcement Learning</text>
  <text x="600" y="170" font-family="Arial, sans-serif" font-size="42" font-weight="bold" text-anchor="middle" fill="white">Inventory Management System</text>
  <text x="600" y="210" font-family="Arial, sans-serif" font-size="24" text-anchor="middle" fill="#93c5fd">Deep Q-Network Optimization • 12.4% Profit Improvement</text>
  <g transform="translate(200, 230)">
    <circle cx="0" cy="0" r="18" fill="#3b82f6" opacity="0.3"/>
    <path d="M -8 -5 Q -8 -10 -3 -10 Q 0 -10 0 -5 Q 0 -10 3 -10 Q 8 -10 8 -5 Q 8 0 5 5 Q 3 8 0 8 Q -3 8 -5 5 Q -8 0 -8 -5" fill="white" stroke="white" stroke-width="1"/>
  </g>
  <g transform="translate(400, 230)">
    <circle cx="0" cy="0" r="18" fill="#10b981" opacity="0.3"/>
    <polyline points="-8,8 -4,2 0,4 4,0 8,4" fill="none" stroke="white" stroke-width="2"/>
  </g>
  <g transform="translate(600, 230)">
    <circle cx="0" cy="0" r="18" fill="#8b5cf6" opacity="0.3"/>
    <rect x="-6" y="-6" width="12" height="12" fill="none" stroke="white" stroke-width="2"/>
    <line x1="-6" y1="-2" x2="6" y2="-2" stroke="white" stroke-width="2"/>
  </g>
  <g transform="translate(800, 230)">
    <circle cx="0" cy="0" r="18" fill="#ec4899" opacity="0.3"/>
    <circle cx="0" cy="0" r="7" fill="none" stroke="white" stroke-width="2"/>
    <circle cx="0" cy="0" r="3" fill="white"/>
  </g>
  <g transform="translate(1000, 230)">
    <circle cx="0" cy="0" r="18" fill="#eab308" opacity="0.3"/>
    <polygon points="2,-8 -4,0 0,0 -2,8 4,0 0,0" fill="white"/>
  </g>
</svg>